<svg id="Layer_1" data-name="Layer 1" xmlns="http://www.w3.org/2000/svg" viewBox="0 0 100 100"><defs><style>.cls-1{fill:none;}.cls-2{fill:#727172;}.cls-3{fill:#9dcc45;}.cls-4{fill:#fff;}.cls-5{fill:#8e191b;}</style></defs><title>icon-face-rec</title><rect class="cls-1" width="100" height="100"/><path class="cls-2" d="M139.86,158.44H73.12a4.84,4.84,0,0,1-4.76-5.7c1.62-9,3.9-14.57,6.8-16.5s9.71-5.23,14.78-7.57a7,7,0,0,1,7.47,1c1.28,1.09,3.89,2.39,9,2.39s7.86-1.35,9.13-2.48a6.62,6.62,0,0,1,7.19-1c5.13,2.37,11.9,5.61,15,7.65h0c4.17,2.78,6.09,10.6,7,16.67A4.84,4.84,0,0,1,139.86,158.44ZM92.91,132a3.08,3.08,0,0,0-1.29.29,131.47,131.47,0,0,0-14.23,7.27c-1.43,1-3.51,5.1-5.08,13.88a0.84,0.84,0,0,0,.18.7,0.82,0.82,0,0,0,.64.3h66.74a0.83,0.83,0,0,0,.63-0.29,0.85,0.85,0,0,0,.2-0.68c-1-7.22-3-12.42-5.22-13.91h0c-3-2-10.31-5.46-14.41-7.35a2.62,2.62,0,0,0-2.85.33c-1.79,1.6-5.28,3.5-11.79,3.5-5.1,0-9-1.13-11.62-3.35A2.93,2.93,0,0,0,92.91,132Zm13.52-2c-13.14,0-20.31-17.46-20.31-26.43,0-6.67,0-24.4,20.31-24.4s20.31,17.72,20.31,24.4C126.74,112.51,119.57,130,106.43,130Zm0-46.83c-14.34,0-16.31,9.8-16.31,20.4,0,6.51,5.72,22.43,16.31,22.43s16.31-15.92,16.31-22.43C122.74,92.95,120.76,83.15,106.43,83.15Z" transform="translate(-56.49 -72.96)"/><circle class="cls-3" cx="49.93" cy="82.78" r="14.08"/><path class="cls-4" d="M106.43,139a16.75,16.75,0,1,0,16.75,16.75A16.77,16.77,0,0,0,106.43,139Zm0,30.83a14.08,14.08,0,1,1,14.08-14.08A14.08,14.08,0,0,1,106.43,169.83Z" transform="translate(-56.49 -72.96)"/><path class="cls-4" d="M113.35,153a0.83,0.83,0,0,1-.25.61L106.63,160l-1.21,1.21a0.86,0.86,0,0,1-1.21,0L103,160l-3.23-3.23a0.86,0.86,0,0,1,0-1.21l1.21-1.21a0.86,0.86,0,0,1,1.21,0l2.63,2.63,5.86-5.87a0.86,0.86,0,0,1,1.21,0l1.21,1.21A0.83,0.83,0,0,1,113.35,153Z" transform="translate(-56.49 -72.96)"/><path class="cls-5" d="M77.24,85.76A0.82,0.82,0,0,1,77,85.15V74.29a0.86,0.86,0,0,1,.86-0.86h6.29a0.86,0.86,0,0,1,.86.86V76a0.86,0.86,0,0,1-.86.86H80.41v8.29a0.86,0.86,0,0,1-.86.86H77.84A0.83,0.83,0,0,1,77.24,85.76Z" transform="translate(-56.49 -72.96)"/><path class="cls-5" d="M135,86h-1.72a0.86,0.86,0,0,1-.86-0.86V76.86h-3.72a0.86,0.86,0,0,1-.86-0.86V74.29a0.86,0.86,0,0,1,.86-0.86H135a0.86,0.86,0,0,1,.86.86V85.15A0.86,0.86,0,0,1,135,86Z" transform="translate(-56.49 -72.96)"/><path class="cls-5" d="M77.84,117.16h1.72a0.86,0.86,0,0,1,.86.86v8.29h3.72a0.86,0.86,0,0,1,.86.86v1.72a0.86,0.86,0,0,1-.86.86H77.85a0.86,0.86,0,0,1-.86-0.86V118A0.86,0.86,0,0,1,77.84,117.16Z" transform="translate(-56.49 -72.96)"/><path class="cls-5" d="M135.62,117.42a0.82,0.82,0,0,1,.25.61v10.86a0.86,0.86,0,0,1-.86.86h-6.29a0.86,0.86,0,0,1-.86-0.86v-1.72a0.86,0.86,0,0,1,.86-0.86h3.72V118a0.86,0.86,0,0,1,.86-0.86H135A0.83,0.83,0,0,1,135.62,117.42Z" transform="translate(-56.49 -72.96)"/></svg>